<?xml version="1.0" encoding="UTF-8"?>
<svg id="Camada_1" xmlns="http://www.w3.org/2000/svg" version="1.1" viewBox="0 0 915 233">
  <!-- Generator: Adobe Illustrator 29.0.1, SVG Export Plug-In . SVG Version: 2.1.0 Build 192)  -->
  <defs>
    <style>
      .st0 {
        fill: #fff;
      }
    </style>
  </defs>
  <g>
    <path class="st0" d="M193.6,12.13c57.55,0,115.09,0,172.64,0,.98,0,1.96-.02,2.93.08,1.37.14,1.85.67,2.01,2.1.07.65.06,1.3.06,1.95,0,7.49.02,14.99,0,22.48-.01,4.04-.22,4.25-4.21,4.26-6.19.02-12.38-.02-18.57.02-6.38.04-12.25,1.77-17.29,5.75-3.52,2.77-6.38,6.11-8.3,10.27-1.77,3.84-2.53,7.81-2.53,12,0,28.02.02,56.04,0,84.05,0,9.63,4.04,17.18,11.68,22.84,4.4,3.26,9.44,4.87,14.9,4.96,6.4.11,12.81.03,19.22.05,1.08,0,2.17.05,3.25.16.98.1,1.57.73,1.69,1.7.1.86.14,1.73.14,2.6.01,7.38.02,14.77,0,22.15-.01,4.02-.32,4.28-4.21,4.28-11.07,0-22.15.02-33.22.01-9.55,0-19.11-.06-28.66-.08-4.99-.01-9.99-.1-14.98.04-2.38.06-4.12-.74-5.72-2.44-5.44-5.77-10.96-11.45-16.47-17.15-2.64-2.73-5.32-5.43-7.97-8.15-.6-.61-1.47-1.26-1.17-2.18.38-1.16,1.59-.94,2.53-.93,3.38.02,6.7-.21,9.99-1.15,4.29-1.23,8-3.44,11.13-6.5,4.04-3.94,6.78-8.7,7.98-14.3.41-1.93.54-3.86.54-5.82,0-8.47,0-16.94,0-25.41,0-19.11,0-38.23,0-57.34,0-2.61-.06-5.2-.7-7.76-2.64-10.46-9.11-17.31-19.36-20.54-2.58-.82-5.3-1.14-8.03-1.13-3.8.01-7.6,0-11.4,0-41.8,0-83.6,0-125.41,0-2.39,0-4.76.02-7.13.46-9.8,1.82-16.81,7.22-20.92,16.28-1.49,3.29-2.11,6.83-2.33,10.44-.05.87-.02,1.74-.02,2.61,0,26.61,0,53.21-.01,79.82,0,3.17.31,6.28,1.02,9.36,2.62,11.44,13.27,20.67,25.92,20.95,1.41.03,2.82.06,4.22.19.88.08,1.22.97.68,1.71-.44.61-.97,1.17-1.49,1.71-5.2,5.39-10.42,10.76-15.62,16.16-2.64,2.73-5.34,5.42-7.85,8.26-1.8,2.05-3.87,2.77-6.58,2.76-23.02-.08-46.04-.05-69.06-.05-2.17,0-4.34,0-6.51,0-.76,0-1.52.01-2.28-.07-1.55-.17-2.06-.71-2.2-2.28-.05-.54-.05-1.08-.05-1.63,0-7.6-.02-15.2,0-22.8.01-3.63.27-3.91,3.88-3.93,6.41-.04,12.81.07,19.22-.04,10.24-.18,18.09-4.72,23.56-13.35,2.81-4.43,3.9-9.38,4.12-14.55.05-1.08.02-2.17.02-3.26,0-25.85,0-51.69,0-77.54,0-2.61-.12-5.2-.51-7.79-1.04-6.99-4.42-12.61-9.8-17.09-5.33-4.43-11.51-6.35-18.37-6.33-5.86.02-11.73.01-17.59,0-4.31-.01-4.48-.17-4.49-4.32-.02-7.49-.02-14.99,0-22.48.01-3.81.24-4.05,4.08-4.06,20.09-.02,40.17,0,60.26,0,37.78,0,75.57,0,113.35,0v.02ZM297.85,192.13h0c-2.06,0-4.12-.08-6.17.03-2.62.14-3.64,1.21-3.8,3.88-.09,1.51-.09,3.03,0,4.55.16,2.89,1.36,4.23,4.2,4.32,3.78.13,7.58.11,11.37,0,2.35-.06,3.87-1.47,4.2-3.75.28-1.93.33-3.9-.1-5.82-.49-2.23-1.53-3.1-3.84-3.2-1.95-.08-3.9-.02-5.85-.02ZM47.63,192.12s0-.02,0-.03c-.97,0-1.95,0-2.92,0-1.08,0-2.17-.03-3.25.06-2.08.17-3.23,1.13-3.54,3.14-.33,2.14-.32,4.32.06,6.47.29,1.69,1.38,2.64,3.04,2.96.53.1,1.07.17,1.61.18,3.36.02,6.71.02,10.07,0,.54,0,1.09-.07,1.6-.21,1.94-.52,3.13-1.91,3.26-3.95.09-1.51.1-3.04,0-4.55-.19-2.71-1.42-3.93-4.08-4.05-1.95-.09-3.9-.02-5.85-.02ZM89.39,192.13s0-.02,0-.03c-1.73,0-3.46,0-5.19,0-.22,0-.43,0-.65.02-2.69.18-3.86,1.31-4.08,4.04-.09,1.08-.01,2.16-.06,3.24-.14,3.28.64,5.51,5.39,5.52,3.03,0,6.06.01,9.09,0,.65,0,1.31-.04,1.93-.19,1.87-.45,3.05-1.64,3.31-3.55.25-1.82.26-3.68-.02-5.5-.38-2.44-1.43-3.41-3.87-3.52-1.94-.09-3.89-.02-5.84-.02ZM339.11,204.92s0,0,0,0c1.95,0,3.9.1,5.85-.02,2.62-.16,3.97-1.41,4.33-3.99.27-1.93.29-3.89-.22-5.81-.54-2.03-1.34-2.86-3.35-2.9-4.11-.1-8.23-.11-12.34,0-2.35.06-3.59,1.32-3.77,3.63-.12,1.62-.12,3.25-.02,4.87.18,2.82,1.44,4.05,4.33,4.21,1.73.1,3.46.02,5.2.02ZM297.73,33.71s0-.01,0-.02c2.06,0,4.12.09,6.17-.02,2.1-.12,3.11-1.06,3.6-3.11.41-1.7.35-3.45.16-5.17-.32-2.88-1.54-3.99-4.44-4.07-2.7-.08-5.41-.03-8.12-.03-1.19,0-2.39-.04-3.57.07-2.39.21-3.47,1.31-3.63,3.74-.1,1.51-.1,3.03-.02,4.54.15,2.8,1.2,3.89,4.01,4.05,1.94.11,3.89.02,5.84.02ZM339.48,21.32h0c-1.84-.01-3.68-.01-5.51,0-.22,0-.43.01-.65.04-2.3.25-3.55,1.43-3.72,3.73-.12,1.61-.11,3.25,0,4.86.16,2.43,1.24,3.64,3.64,3.72,4.1.14,8.22.13,12.32.02,2.15-.05,3.16-.99,3.62-3.05.44-2.02.44-4.09.01-6.12-.47-2.21-1.52-3.06-3.86-3.17-1.94-.09-3.89-.02-5.84-.02ZM47.38,33.7s0,0,0,0c2.06,0,4.13.09,6.18-.02,2.49-.14,3.78-1.39,3.97-3.86.12-1.51.12-3.04,0-4.55-.19-2.51-1.44-3.85-3.9-3.91-4.01-.11-8.03-.11-12.04,0-2.33.06-3.54,1.3-3.75,3.68-.15,1.61-.15,3.26,0,4.88.22,2.54,1.42,3.65,4,3.78,1.84.1,3.69.02,5.53.02ZM89.35,33.71s0-.02,0-.03c2.06,0,4.13.11,6.18-.03,2.19-.14,3.41-1.31,3.62-3.48.17-1.72.17-3.48.01-5.2-.21-2.36-1.43-3.56-3.81-3.62-4.01-.11-8.03-.11-12.05,0-2.32.06-3.57,1.31-3.8,3.65-.16,1.61-.16,3.26-.02,4.88.21,2.51,1.45,3.68,3.99,3.81,1.95.1,3.91.02,5.86.02ZM131.27,21.34s0,.01,0,.02c-2.17,0-4.34-.1-6.5.03-2.01.12-3.21,1.25-3.48,3.23-.26,1.93-.28,3.9.01,5.84.3,1.97,1.46,3.12,3.53,3.18,4.11.12,8.24.12,12.35,0,2.17-.06,3.48-1.31,3.67-3.41.17-1.82.17-3.69-.01-5.51-.22-2.09-1.54-3.24-3.72-3.36-1.94-.11-3.9-.02-5.85-.02ZM214.62,33.72s0-.04,0-.06c2.06,0,4.13.1,6.18-.03,1.85-.12,3.06-1.2,3.38-2.99.38-2.14.42-4.33-.13-6.46-.46-1.76-1.62-2.83-3.5-2.84-4.12-.03-8.25-.1-12.37.03-2.29.07-3.47,1.43-3.61,3.8-.09,1.51-.1,3.04.02,4.55.21,2.69,1.43,3.85,4.18,3.98,1.95.09,3.91.02,5.86.02ZM172.97,33.72s0-.02,0-.03c1.95,0,3.9.09,5.85-.02,2.1-.13,3.14-1.07,3.59-3.12.42-1.92.4-3.89.05-5.81-.44-2.36-1.55-3.33-4.03-3.39-3.68-.09-7.37-.03-11.05-.03-.32,0-.65.02-.97.06-2.12.27-3.37,1.46-3.53,3.57-.12,1.51-.12,3.04-.02,4.55.18,2.87,1.42,4.1,4.28,4.23,1.95.09,3.9.02,5.85.02ZM256.31,21.33s0,.01,0,.02c-2.16,0-4.33-.1-6.48.03-2.02.12-3.31,1.3-3.54,3.16-.25,2.04-.28,4.11.04,6.14.24,1.52,1.24,2.5,2.76,2.84.63.14,1.29.19,1.93.19,3.35.02,6.7.02,10.05,0,.54,0,1.08-.02,1.62-.11,1.81-.3,2.71-1.13,2.85-2.98.15-1.93.16-3.89.04-5.83-.14-2.39-1.08-3.32-3.43-3.45-1.94-.11-3.89-.02-5.84-.02Z"/>
    <path class="st0" d="M123.53,112.64c0-15.21,0-30.41,0-45.62,0-1.19.03-2.39.18-3.57.12-1.01.84-1.49,1.88-1.3,1.17.21,2.33.51,3.49.8,7.47,1.89,14.95,3.75,22.41,5.69,3.27.85,3.4,1.06,3.4,4.49.02,17.16,0,34.32,0,51.48,0,8.69,0,17.38,0,26.07,0,.76,0,1.52,0,2.28-.04,3.75-.16,3.84-3.89,4.71-4.02.93-8.01,1.96-12.02,2.94-3.9.96-7.8,1.93-11.7,2.88-.63.15-1.28.25-1.93.28-.81.05-1.51-.46-1.61-1.3-.15-1.18-.2-2.38-.21-3.57-.01-15.42,0-30.85,0-46.27Z"/>
    <path class="st0" d="M263.11,113.21c0,14.99,0,29.97,0,44.96,0,.76,0,1.52,0,2.28-.06,3.43-.4,3.72-3.88,2.97-2.33-.5-4.64-1.12-6.96-1.7-5.79-1.45-11.58-2.9-17.37-4.35-.32-.08-.62-.19-.94-.27-1.6-.39-2.36-1.41-2.32-3.06.02-.98-.02-1.95-.02-2.93,0-25.63,0-51.26,0-76.89,0-.98.03-1.95.06-2.93.04-1.25.72-2,1.88-2.35.73-.21,1.46-.43,2.2-.61,8.01-1.96,16.03-3.92,24.04-5.88.53-.13,1.06-.24,1.6-.3.9-.1,1.52.33,1.6,1.21.1,1.08.11,2.17.11,3.25,0,15.53,0,31.06,0,46.59Z"/>
  </g>
  <g>
    <path class="st0" d="M436.92,73.29c6.08,3.02,11.47,7.59,16.16,13.72l-18.52,15.01c-2.35-2.97-5-5.16-7.98-6.56-2.97-1.4-6.35-2.1-10.14-2.1-3.34,0-6.35.54-9.06,1.62-2.7,1.08-5.05,2.64-7.03,4.67-1.98,2.03-3.49,4.46-4.53,7.3-1.04,2.84-1.56,6.02-1.56,9.53s.52,6.58,1.56,9.46c1.04,2.89,2.52,5.34,4.46,7.37,1.94,2.03,4.26,3.58,6.96,4.67,2.7,1.08,5.72,1.62,9.06,1.62,3.69,0,7.03-.7,10.01-2.1,2.97-1.4,5.72-3.63,8.25-6.69l18.52,15.01c-4.69,6.13-10.1,10.73-16.23,13.79-6.13,3.06-13.03,4.6-20.69,4.6-6.85,0-13.18-1.2-19-3.58-5.81-2.39-10.82-5.7-15.01-9.94-4.19-4.24-7.48-9.26-9.87-15.08-2.39-5.81-3.58-12.19-3.58-19.13s1.19-13.32,3.58-19.13c2.39-5.81,5.68-10.84,9.87-15.08,4.19-4.24,9.19-7.55,15.01-9.94,5.81-2.39,12.19-3.58,19.13-3.58,7.66,0,14.53,1.51,20.62,4.53Z"/>
    <path class="st0" d="M462.68,91.75h23.12v70.04h-23.12v-70.04ZM482.21,65.52c2.12,1.89,3.18,4.42,3.18,7.57,0,1.53-.27,2.93-.81,4.19-.54,1.26-1.31,2.34-2.3,3.25-.99.9-2.19,1.6-3.58,2.1-1.4.5-2.91.74-4.53.74-3.16,0-5.81-.92-7.98-2.77-2.16-1.85-3.25-4.35-3.25-7.5,0-1.62.27-3.06.81-4.33.54-1.26,1.3-2.34,2.3-3.25.99-.9,2.18-1.6,3.58-2.1,1.4-.49,2.91-.74,4.53-.74,3.25,0,5.93.95,8.04,2.84Z"/>
    <path class="st0" d="M549.21,92.22c4.6,1.85,8.52,4.51,11.76,7.98,3.24,3.47,5.72,7.69,7.44,12.64,1.71,4.96,2.57,10.5,2.57,16.63v32.32h-23.12v-33.53c0-2.88-.32-5.38-.95-7.5-.63-2.12-1.55-3.9-2.77-5.34-1.22-1.44-2.73-2.52-4.53-3.25-1.8-.72-3.83-1.08-6.08-1.08s-4.44.36-6.29,1.08c-1.85.72-3.38,1.8-4.6,3.25-1.22,1.44-2.14,3.25-2.77,5.41-.63,2.16-.95,4.64-.95,7.44v33.53h-22.31v-32.32c0-6.22.86-11.78,2.57-16.7,1.71-4.91,4.17-9.1,7.37-12.57,3.2-3.47,7.08-6.13,11.63-7.98,4.55-1.85,9.71-2.77,15.48-2.77s10.95.92,15.55,2.77Z"/>
    <path class="st0" d="M610.93,110.13c-2.03.81-3.76,1.98-5.21,3.52-1.44,1.53-2.57,3.34-3.38,5.41-.81,2.08-1.22,4.46-1.22,7.17s.41,4.98,1.22,7.1c.81,2.12,1.96,3.92,3.45,5.41s3.27,2.64,5.34,3.45c2.07.81,4.46,1.22,7.17,1.22,2.88,0,5.66-.52,8.32-1.55,2.66-1.04,5.21-2.59,7.64-4.67l10.68,16.5c-3.61,3.43-7.77,6.04-12.51,7.84s-9.8,2.7-15.21,2.7-10.55-.92-15.14-2.77c-4.6-1.85-8.54-4.42-11.83-7.71-3.29-3.29-5.86-7.23-7.71-11.83-1.85-4.6-2.77-9.64-2.77-15.14s.92-10.52,2.77-15.08c1.85-4.55,4.42-8.47,7.71-11.76,3.29-3.29,7.25-5.86,11.9-7.71,4.64-1.85,9.71-2.77,15.21-2.77,5.05,0,9.71.74,13.99,2.23,4.28,1.49,8.02,3.63,11.22,6.42,3.2,2.79,5.81,6.15,7.84,10.07,2.03,3.92,3.36,8.27,3.99,13.05l-59.63,18.12-3.65-12.98,49.35-14.87-6.49,9.73c-.36-1.8-1.01-3.47-1.96-5-.95-1.53-2.14-2.82-3.58-3.85-1.44-1.04-3.07-1.87-4.87-2.5-1.8-.63-3.74-.95-5.81-.95-2.52,0-4.8.41-6.83,1.22Z"/>
    <path class="st0" d="M697.53,71.06c8.29,0,15.71,1.01,22.24,3.04,6.54,2.03,12.05,5,16.56,8.92,4.51,3.92,7.95,8.68,10.34,14.26,2.39,5.59,3.58,11.95,3.58,19.06s-1.2,13.61-3.58,19.2c-2.39,5.59-5.84,10.34-10.34,14.26-4.51,3.92-10.03,6.9-16.56,8.92-6.54,2.03-13.95,3.04-22.24,3.04h-34.48v-90.73h34.48ZM688.74,139.21h11.09c4.06,0,7.62-.49,10.68-1.49,3.06-.99,5.63-2.46,7.71-4.39,2.07-1.94,3.65-4.33,4.73-7.17,1.08-2.84,1.62-6.15,1.62-9.94,0-7.3-2.1-12.89-6.29-16.77-4.19-3.87-10.34-5.81-18.46-5.81h-11.09v45.57Z"/>
    <path class="st0" d="M760.81,111.69c1.89-4.55,4.51-8.47,7.84-11.76,3.33-3.29,7.37-5.86,12.1-7.71,4.73-1.85,9.89-2.77,15.48-2.77s10.73.9,15.41,2.7c4.69,1.8,8.72,4.35,12.1,7.64,3.38,3.29,5.99,7.23,7.84,11.83,1.85,4.6,2.77,9.65,2.77,15.14s-.92,10.55-2.77,15.14c-1.85,4.6-4.46,8.54-7.84,11.83-3.38,3.29-7.42,5.86-12.1,7.71-4.69,1.85-9.83,2.77-15.41,2.77s-10.73-.92-15.41-2.77c-4.69-1.85-8.72-4.42-12.1-7.71-3.38-3.29-6.02-7.23-7.91-11.83-1.89-4.6-2.84-9.64-2.84-15.14s.95-10.52,2.84-15.08ZM810.57,120.34c-.72-1.94-1.76-3.58-3.11-4.94-1.35-1.35-2.97-2.41-4.87-3.18-1.89-.76-4.01-1.15-6.36-1.15s-4.46.38-6.35,1.15c-1.89.77-3.51,1.83-4.87,3.18-1.35,1.35-2.41,3-3.18,4.94-.77,1.94-1.15,4.08-1.15,6.42s.38,4.49,1.15,6.42c.76,1.94,1.83,3.61,3.18,5,1.35,1.4,3,2.48,4.93,3.25,1.94.77,4.03,1.15,6.29,1.15s4.46-.38,6.36-1.15c1.89-.77,3.49-1.85,4.8-3.25,1.31-1.4,2.34-3.06,3.11-5,.76-1.94,1.15-4.08,1.15-6.42s-.36-4.48-1.08-6.42Z"/>
    <path class="st0" d="M866.68,124.87c0,5.86,1.26,10.28,3.79,13.25s6.31,4.46,11.36,4.46c1.08,0,2.1-.07,3.04-.2.95-.14,1.83-.38,2.64-.74v21.09c-1.62.54-3.22.92-4.8,1.15-1.58.22-3.31.34-5.21.34-10.64,0-18.95-3.4-24.95-10.21-6-6.8-8.99-16.29-8.99-28.46v-48.54h23.12v47.86ZM856.54,91.75h30.69v20.01h-30.69v-20.01Z"/>
  </g>
</svg>